<?xml version="1.0" standalone="no"?>
<!-- Generator: Adobe Fireworks 10, Export SVG Extension by Aaron Beall (http://fireworks.abeall.com) . Version: 0.6.1  -->
<!DOCTYPE svg PUBLIC "-//W3C//DTD SVG 1.1//EN" "http://www.w3.org/Graphics/SVG/1.1/DTD/svg11.dtd">
<svg id="test.fw-%u30DA%u30FC%u30B8%201" viewBox="0 0 228 39" style="background-color:#ffffff00" version="1.1"
	xmlns="http://www.w3.org/2000/svg" xmlns:xlink="http://www.w3.org/1999/xlink" xml:space="preserve"
	x="0px" y="0px" width="228px" height="39px"
>
	<g>
		<g>
			<path d="M 221.4453 17.4526 L 221.4453 13.979 L 220.1465 13.979 L 220.1465 13.5151 L 223.2695 13.5151 L 223.2695 13.979 L 221.9668 13.979 L 221.9668 17.4526 L 221.4453 17.4526 Z" fill="#ffffff"/>
			<path d="M 223.7871 17.4526 L 223.7871 13.5151 L 224.5703 13.5151 L 225.5039 16.3022 C 225.5898 16.562 225.6504 16.7563 225.6914 16.8862 C 225.7363 16.7417 225.8066 16.5327 225.9004 16.2534 L 226.8438 13.5151 L 227.5449 13.5151 L 227.5449 17.4526 L 227.041 17.4526 L 227.041 14.1558 L 225.8984 17.4526 L 225.4277 17.4526 L 224.2891 14.1001 L 224.2891 17.4526 L 223.7871 17.4526 Z" fill="#ffffff"/>
		</g>
		<g>
			<g>
				<path d="M 151.7949 4.4839 L 144.6895 4.4839 L 141 27.2803 C 140.957 27.4307 140.7637 27.8994 140.5547 27.8994 C 140.3145 27.8994 140.1914 27.3896 140.1504 27.2334 L 135.2871 4.478 L 128.6875 4.478 L 123.8242 27.2334 C 123.7832 27.4307 123.625 27.8994 123.3828 27.8994 C 123.1367 27.8994 122.9805 27.3896 122.9805 27.2803 L 119.1875 4.479 L 112.1265 4.479 C 112.1255 4.8823 112.3208 5.9077 112.3999 6.2603 L 118.4023 37.6123 L 126.7988 37.6123 L 131.7461 11.6401 C 131.7461 11.605 131.8281 11.3765 131.9844 11.3765 C 132.1504 11.3765 132.2344 11.605 132.2344 11.6401 L 137.3477 37.6045 L 145.7109 37.6045 L 151.4766 6.271 C 151.5586 5.8853 151.793 4.8589 151.7949 4.4839 Z" fill="#ffffff"/>
			</g>
			<g>
				<path d="M 53.0469 12.2612 C 51.4683 12.2612 49.9917 12.6636 48.7192 13.3765 C 47.4463 14.0386 46.3799 15.0054 45.6147 16.1802 L 45.5127 16.1802 L 45.5127 1.4839 L 39.2495 1.4839 L 39.2495 37.6123 L 45.5127 37.6123 L 45.5127 22.7451 C 45.5127 22.085 45.5649 21.4175 45.7686 20.8618 C 46.4805 18.9771 48.21 17.3491 50.6538 17.3491 C 54.1157 17.3491 55.4409 20.0962 55.4409 23.6631 L 55.4409 37.6123 L 61.7026 37.6123 L 61.7026 22.999 C 61.7026 15.0562 57.2725 12.2612 53.0469 12.2612 Z" fill="#ffffff"/>
			</g>
			<g>
				<path d="M 104.8291 7.5015 L 98.6699 7.5015 L 98.6699 13.5171 L 95.1567 13.5171 L 95.1567 18.2017 L 98.6699 18.2017 L 98.6699 29.1611 C 98.6699 32.4209 99.2803 34.7061 100.6563 36.1318 C 101.8271 37.4053 103.7109 38.1709 106.0522 38.1709 C 107.9844 38.1709 109.8594 37.8018 110.7778 37.4482 L 110.7778 32.7119 C 110.0669 32.9189 109.1567 33.0283 108.0381 33.0283 C 105.6436 33.0283 104.8291 31.5029 104.8291 28.4482 L 104.8291 18.2017 L 110.7866 18.2017 L 110.7866 13.5171 L 104.8291 13.5171 L 104.8291 7.5015 Z" fill="#ffffff"/>
			</g>
			<g>
				<path d="M 185.6484 17.5005 L 185.4824 17.5005 L 185.4824 13.5132 L 179.9434 13.5132 L 179.9434 37.6123 L 186.3086 37.6123 L 186.3086 24.7354 C 186.3086 24.0732 186.3594 23.4072 186.4629 22.8467 C 187.0195 20.0005 189.1074 18.1118 192.0605 18.1118 C 192.8242 18.1118 193.3848 18.1636 193.9453 18.2671 L 193.9453 12.4116 C 193.4375 12.3071 193.0781 12.2612 192.4648 12.2612 C 189.7715 12.2612 186.8672 14.0386 185.6484 17.5005 Z" fill="#ffffff"/>
			</g>
			<g>
				<path d="M 209.6367 22.9482 L 218.3379 13.5171 L 210.8027 13.5171 L 205.2578 20.8101 C 204.6465 21.6768 203.9336 22.7451 203.3262 23.71 L 203.2227 23.71 L 203.2227 1.4819 L 196.959 1.4819 L 196.959 37.6123 L 203.2227 37.6123 L 203.2227 29.1611 L 205.3086 26.667 L 212.4375 37.6123 L 220.123 37.6123 L 209.6367 22.9482 Z" fill="#ffffff"/>
			</g>
			<g>
				<path d="M 19.4292 31.7588 C 12.665 31.7588 7.1606 26.249 7.1606 19.4888 C 7.1606 12.7212 12.665 7.2144 19.4292 7.2144 C 23.9404 7.2144 27.877 9.6704 30.0073 13.3101 L 36.2559 11.5063 C 33.2656 5.2104 26.8662 0.8462 19.4292 0.8462 C 9.1348 0.8462 0.79 9.1929 0.79 19.4888 C 0.79 23.499 2.0708 27.208 4.2285 30.2471 L 0.7725 37.6025 L 1.7036 37.6025 L 8.748 34.749 C 11.7759 36.8662 15.4541 38.126 19.4292 38.126 C 26.9404 38.126 33.395 33.6729 36.3496 27.2744 L 30.1294 25.4561 C 28.0288 29.208 24.0269 31.7588 19.4292 31.7588 Z" fill="#ffffff"/>
			</g>
			<g>
				<g>
					<path d="M 172.1211 22.667 C 172.3711 23.4697 172.5059 24.3213 172.5059 25.2061 C 172.5059 29.9326 168.6602 33.7783 163.9336 33.7783 C 159.207 33.7783 155.3633 29.9326 155.3633 25.2061 C 155.3633 20.48 159.207 16.6353 163.9336 16.6353 C 165.3984 16.6353 166.7773 17.0054 167.9863 17.6548 L 171.1973 14.4478 C 169.125 13.0444 166.625 12.2251 163.9336 12.2251 C 156.7637 12.2251 150.9531 18.0366 150.9531 25.2061 C 150.9531 32.376 156.7637 38.1885 163.9336 38.1885 C 171.1035 38.1885 176.916 32.376 176.916 25.2061 C 176.916 22.708 176.1973 20.3813 174.9727 18.4009 C 174.043 19.7944 173.0664 21.2524 172.1211 22.667 Z" fill="#ffffff"/>
				</g>
				<g>
					<path d="M 159.6406 19.9917 C 158.3672 21.0405 157.4941 22.5479 157.25 24.2549 C 159.4668 26.5361 162.377 29.4424 162.7129 29.7646 C 163.5176 30.5381 164.5898 30.4814 165.1563 29.7646 C 165.4883 29.3428 176.9297 12.2007 176.9297 12.2007 L 176.0195 12.2007 L 163.9238 24.2764 L 159.6406 19.9917 Z" fill="#ffffff"/>
				</g>
			</g>
			<g>
				<path d="M 86.0117 15.2524 C 83.7612 13.3726 80.8662 12.2397 77.7046 12.2397 C 70.5425 12.2397 64.7344 18.0454 64.7344 25.21 C 64.7344 32.3721 70.5425 38.1787 77.7046 38.1787 C 80.8662 38.1787 83.7612 37.0459 86.0117 35.167 L 86.0117 37.6104 L 92.1602 37.6104 L 92.1602 13.521 L 86.0117 13.521 L 86.0117 15.2524 ZM 77.7046 33.5107 C 73.1274 33.5107 69.4043 29.7861 69.4043 25.21 C 69.4043 20.6323 73.1274 16.9077 77.7046 16.9077 C 82.2822 16.9077 86.0054 20.6323 86.0054 25.21 C 86.0054 29.7861 82.2822 33.5107 77.7046 33.5107 Z" fill="#ffffff"/>
			</g>
		</g>
	</g>
</svg>